<svg xmlns="http://www.w3.org/2000/svg" viewBox="0 0 320 180" fill="none">
<defs><pattern id="g" width="20" height="20" patternUnits="userSpaceOnUse">
<path d="M20 0H0V20" stroke="#2de2d6" stroke-opacity="0.09" stroke-width="1"/></pattern></defs>
<rect width="320" height="180" fill="url(#g)"/>
<rect x="8" y="8" width="304" height="164" rx="8" stroke="#2de2d6" stroke-opacity="0.25"/>

<rect x="70" y="85" width="5" height="14" rx="2" fill="#2de2d6" fill-opacity="0.8"/><rect x="81" y="77" width="5" height="30" rx="2" fill="#2de2d6" fill-opacity="0.8"/><rect x="92" y="68" width="5" height="48" rx="2" fill="#2de2d6" fill-opacity="0.8"/><rect x="103" y="79" width="5" height="26" rx="2" fill="#2de2d6" fill-opacity="0.8"/><rect x="114" y="63" width="5" height="58" rx="2" fill="#2de2d6" fill-opacity="0.8"/><rect x="125" y="73" width="5" height="38" rx="2" fill="#2de2d6" fill-opacity="0.8"/><rect x="136" y="59" width="5" height="66" rx="2" fill="#2de2d6" fill-opacity="0.8"/><rect x="147" y="77" width="5" height="30" rx="2" fill="#2de2d6" fill-opacity="0.8"/><rect x="158" y="67" width="5" height="50" rx="2" fill="#2de2d6" fill-opacity="0.8"/><rect x="169" y="81" width="5" height="22" rx="2" fill="#2de2d6" fill-opacity="0.8"/><rect x="180" y="72" width="5" height="40" rx="2" fill="#2de2d6" fill-opacity="0.8"/><rect x="191" y="84" width="5" height="16" rx="2" fill="#2de2d6" fill-opacity="0.8"/>
<path d="M212 60 a34 34 0 1 1 -8 -18" stroke="#37e06b" stroke-width="2" fill="none"/>
<path d="M204 40 l6 2 l-3 6 z" fill="#37e06b"/>
<text x="18" y="166" font-family="JetBrains Mono,monospace" font-size="9" fill="#7f9aa0" letter-spacing="1">ESP32 LOOPER · FSM</text>
</svg>